<?xml version="1.0" encoding="UTF-8" standalone="no"?>
<svg
   xmlns:dc="http://purl.org/dc/elements/1.1/"
   xmlns:cc="http://creativecommons.org/ns#"
   xmlns:rdf="http://www.w3.org/1999/02/22-rdf-syntax-ns#"
   xmlns:svg="http://www.w3.org/2000/svg"
   xmlns="http://www.w3.org/2000/svg"
   xmlns:xlink="http://www.w3.org/1999/xlink"
   xmlns:sodipodi="http://sodipodi.sourceforge.net/DTD/sodipodi-0.dtd"
   xmlns:inkscape="http://www.inkscape.org/namespaces/inkscape"
   width="210mm"
   height="297mm"
   viewBox="0 0 210 297"
   version="1.1"
   id="svg8"
   inkscape:version="1.0.1 (3bc2e813f5, 2020-09-07)"
   sodipodi:docname="scheme_5.svg">
  <defs
     id="defs2">
    <marker
       style="overflow:visible;"
       id="marker1358"
       refX="0.0"
       refY="0.0"
       orient="auto"
       inkscape:stockid="Arrow1Mend"
       inkscape:isstock="true">
      <path
         transform="scale(0.4) rotate(180) translate(10,0)"
         style="fill-rule:evenodd;stroke:#000000;stroke-width:1pt;stroke-opacity:1;fill:#000000;fill-opacity:1"
         d="M 0.0,0.0 L 5.0,-5.0 L -12.5,0.0 L 5.0,5.0 L 0.0,0.0 z "
         id="path1356" />
    </marker>
    <inkscape:path-effect
       effect="bspline"
       id="path-effect1354"
       is_visible="true"
       lpeversion="1"
       weight="33.333333"
       steps="2"
       helper_size="0"
       apply_no_weight="true"
       apply_with_weight="true"
       only_selected="false" />
    <marker
       style="overflow:visible;"
       id="Arrow1Mend"
       refX="0.0"
       refY="0.0"
       orient="auto"
       inkscape:stockid="Arrow1Mend"
       inkscape:isstock="true"
       inkscape:collect="always">
      <path
         transform="scale(0.4) rotate(180) translate(10,0)"
         style="fill-rule:evenodd;stroke:#000000;stroke-width:1pt;stroke-opacity:1;fill:#000000;fill-opacity:1"
         d="M 0.0,0.0 L 5.0,-5.0 L -12.5,0.0 L 5.0,5.0 L 0.0,0.0 z "
         id="path901" />
    </marker>
    <marker
       style="overflow:visible;"
       id="marker1258"
       refX="0.0"
       refY="0.0"
       orient="auto"
       inkscape:stockid="Arrow1Lend"
       inkscape:isstock="true">
      <path
         transform="scale(0.8) rotate(180) translate(12.5,0)"
         style="fill-rule:evenodd;stroke:#000000;stroke-width:1pt;stroke-opacity:1;fill:#000000;fill-opacity:1"
         d="M 0.0,0.0 L 5.0,-5.0 L -12.5,0.0 L 5.0,5.0 L 0.0,0.0 z "
         id="path1256" />
    </marker>
    <marker
       style="overflow:visible"
       id="TriangleOutL"
       refX="0.0"
       refY="0.0"
       orient="auto"
       inkscape:stockid="TriangleOutL"
       inkscape:isstock="true">
      <path
         transform="scale(0.8)"
         style="fill-rule:evenodd;stroke:#000000;stroke-width:1pt;stroke-opacity:1;fill:#000000;fill-opacity:1"
         d="M 5.77,0.0 L -2.88,5.0 L -2.88,-5.0 L 5.77,0.0 z "
         id="path1034" />
    </marker>
    <marker
       style="overflow:visible;"
       id="Arrow2Lend"
       refX="0.0"
       refY="0.0"
       orient="auto"
       inkscape:stockid="Arrow2Lend"
       inkscape:isstock="true">
      <path
         transform="scale(1.1) rotate(180) translate(1,0)"
         d="M 8.7185878,4.0337352 L -2.2072895,0.016013256 L 8.7185884,-4.0017078 C 6.9730900,-1.6296469 6.9831476,1.6157441 8.7185878,4.0337352 z "
         style="fill-rule:evenodd;stroke-width:0.625;stroke-linejoin:round;stroke:#000000;stroke-opacity:1;fill:#000000;fill-opacity:1"
         id="path913" />
    </marker>
    <marker
       style="overflow:visible;"
       id="Arrow1Lend"
       refX="0.0"
       refY="0.0"
       orient="auto"
       inkscape:stockid="Arrow1Lend"
       inkscape:isstock="true">
      <path
         transform="scale(0.8) rotate(180) translate(12.5,0)"
         style="fill-rule:evenodd;stroke:#000000;stroke-width:1pt;stroke-opacity:1;fill:#035792;fill-opacity:1"
         d="M 0.0,0.0 L 5.0,-5.0 L -12.5,0.0 L 5.0,5.0 L 0.0,0.0 z "
         id="path895" />
    </marker>
    <inkscape:path-effect
       effect="bspline"
       id="path-effect890"
       is_visible="true"
       lpeversion="1"
       weight="33.333333"
       steps="2"
       helper_size="0"
       apply_no_weight="true"
       apply_with_weight="true"
       only_selected="false" />
    <radialGradient
       inkscape:collect="always"
       xlink:href="#linearGradient1013"
       id="radialGradient1269"
       gradientUnits="userSpaceOnUse"
       cx="140.22916"
       cy="80.886909"
       fx="140.22916"
       fy="80.886909"
       r="25.824406" />
    <linearGradient
       inkscape:collect="always"
       id="linearGradient1013">
      <stop
         style="stop-color:#00ff59;stop-opacity:1"
         offset="0"
         id="stop1011" />
      <stop
         style="stop-color:#00c904;stop-opacity:1"
         offset="1"
         id="stop1009" />
    </linearGradient>
    <radialGradient
       inkscape:collect="always"
       xlink:href="#linearGradient1426"
       id="radialGradient1428"
       gradientUnits="userSpaceOnUse"
       gradientTransform="matrix(0.62688703,-0.00423981,0.00324564,0.65189498,-24.37651,-2.9863813)"
       cx="237.20171"
       cy="72.964577"
       fx="237.20171"
       fy="72.964577"
       r="50.345764" />
    <linearGradient
       inkscape:collect="always"
       id="linearGradient1426">
      <stop
         style="stop-color:#dcf0ff;stop-opacity:1"
         offset="0"
         id="stop1422" />
      <stop
         style="stop-color:#77a8cb;stop-opacity:1;"
         offset="1"
         id="stop1424" />
    </linearGradient>
  </defs>
  <sodipodi:namedview
     id="base"
     pagecolor="#ffffff"
     bordercolor="#666666"
     borderopacity="1.0"
     inkscape:pageopacity="0.0"
     inkscape:pageshadow="2"
     inkscape:zoom="1.3062462"
     inkscape:cx="363.72549"
     inkscape:cy="56.3086"
     inkscape:document-units="mm"
     inkscape:current-layer="layer1"
     inkscape:document-rotation="0"
     showgrid="false"
     inkscape:window-width="1600"
     inkscape:window-height="1138"
     inkscape:window-x="-8"
     inkscape:window-y="-8"
     inkscape:window-maximized="1"
     inkscape:object-paths="true"
     inkscape:snap-nodes="false" />
  <metadata
     id="metadata5">
    <rdf:RDF>
      <cc:Work
         rdf:about="">
        <dc:format>image/svg+xml</dc:format>
        <dc:type
           rdf:resource="http://purl.org/dc/dcmitype/StillImage" />
        <dc:title></dc:title>
      </cc:Work>
    </rdf:RDF>
  </metadata>
  <g
     inkscape:label="Layer 1"
     inkscape:groupmode="layer"
     id="layer1">
    <g
       id="g1267"
       transform="matrix(1.0958967,0,0,1.0995614,-109.28649,-36.463858)"
       style="stroke-width:0.4;stroke-miterlimit:4;stroke-dasharray:none">
      <rect
         style="fill:url(#radialGradient1269);fill-opacity:1;stroke:#000000;stroke-width:0.4;stroke-linecap:round;stroke-linejoin:round;stroke-miterlimit:4;stroke-dasharray:none"
         id="rect997"
         width="50.648811"
         height="50.648811"
         x="114.90475"
         y="55.5625"
         ry="2.9293156"
         rx="2.8348215" />
      <g
         id="g1025"
         transform="matrix(0.53847777,0,0,0.53847777,96.005108,30.198847)"
         style="stroke-width:0.742835;stroke-miterlimit:4;stroke-dasharray:none">
        <path
           id="path961"
           style="fill:#000000;stroke:none;stroke-width:0.742835;stroke-miterlimit:4;stroke-dasharray:none"
           d="m 64.371347,86.524563 -2.01379,3.581226 -3.161128,-2.588517 a 15.342226,15.342226 0 0 0 -4.648694,2.784039 l 0.750725,3.99089 -4.037865,0.04857 a 15.342226,15.342226 0 0 0 -1.786487,5.147784 l 3.107814,2.547955 -3.037953,2.61223 a 15.342226,15.342226 0 0 0 1.933472,5.11204 l 4.001751,-0.0456 -0.648222,3.95329 a 15.342226,15.342226 0 0 0 4.754855,2.68461 l 3.048268,-2.61767 2.059873,3.47078 a 15.342226,15.342226 0 0 0 2.415888,-0.20091 15.342226,15.342226 0 0 0 2.929908,-0.78354 l 0.659402,-4.00589 3.853883,1.35043 a 15.342226,15.342226 0 0 0 3.441623,-4.16557 l -2.093983,-3.53315 3.860207,-1.45786 a 15.342226,15.342226 0 0 0 0.0111,-5.023705 15.342226,15.342226 0 0 0 -0.06238,-0.353852 l -3.905078,-1.371179 2.028423,-3.612746 a 15.342226,15.342226 0 0 0 -3.503658,-4.071989 l -3.873296,1.459986 -0.765442,-4.055694 a 15.342226,15.342226 0 0 0 -5.319199,-0.855914 z m -0.633565,9.871171 a 5.6223059,5.6223059 0 0 1 6.456546,4.640126 5.6223059,5.6223059 0 0 1 -4.640133,6.45655 5.6223059,5.6223059 0 0 1 -6.456546,-4.64013 5.6223059,5.6223059 0 0 1 4.640133,-6.456546 z" />
        <g
           id="g997"
           transform="matrix(0.89970278,0.21789943,-0.21789943,0.89970278,13.331199,-9.0456329)"
           style="stroke-width:0.802446;stroke-miterlimit:4;stroke-dasharray:none">
          <path
             id="path974"
             style="fill:#000000;stroke:none;stroke-width:3.7079;stroke-miterlimit:4;stroke-dasharray:none"
             d="m 383.49609,201.06055 a 100.03381,100.03381 0 0 0 -21.42968,2.38476 l -4.17383,21.19531 -17.03906,-13.90039 a 100.03381,100.03381 0 0 0 -27.48438,19.29493 l 8.3418,21.07812 -23.01953,-2.61523 a 100.03381,100.03381 0 0 0 -11.54493,26.73828 100.03381,100.03381 0 0 0 -0.93554,3.79101 l 19.375,13.91407 -21.80664,10.75195 a 100.03381,100.03381 0 0 0 6.0957,31.87891 l 24.75977,1.27734 -12.90821,21.46094 a 100.03381,100.03381 0 0 0 22.4043,23.08593 l 21.85352,-12.5 0.74609,25.11524 a 100.03381,100.03381 0 0 0 11.19336,3.71484 100.03381,100.03381 0 0 0 20.27148,3.24219 l 11.48828,-22.0625 13.875,20.24414 a 100.03381,100.03381 0 0 0 30.48438,-11.56836 l -2.18555,-23.88281 21.64844,9.12109 a 100.03381,100.03381 0 0 0 19.625,-26.74609 l -14.01367,-17.9668 21.97265,-3.82812 a 100.03381,100.03381 0 0 0 2.17188,-33.67774 l -20.45899,-7.17187 15.71289,-14.45313 a 100.03381,100.03381 0 0 0 -16.32617,-30 l -20.4375,4.8711 5.29688,-20.23828 a 100.03381,100.03381 0 0 0 -29.86524,-16.80469 l -14.54101,15.1289 -6.56055,-20.11523 a 100.03381,100.03381 0 0 0 -12.58594,-0.75781 z m 0.11524,68.07031 a 32.109616,32.109616 0 0 1 8.41015,1.08984 32.109616,32.109616 0 0 1 22.71875,39.31836 32.109616,32.109616 0 0 1 -39.31835,22.71875 32.109616,32.109616 0 0 1 -22.71876,-39.3164 32.109616,32.109616 0 0 1 30.90821,-23.81055 z"
             transform="matrix(0.20906076,-0.05593851,0.05593851,0.20906076,11.813788,34.513187)" />
        </g>
        <g
           id="g1016"
           transform="rotate(26.924322,179.84962,63.1313)"
           style="stroke-width:0.742835;stroke-miterlimit:4;stroke-dasharray:none">
          <path
             id="path1003"
             style="fill:#000000;stroke:none;stroke-width:0.742835;stroke-miterlimit:4;stroke-dasharray:none"
             d="m 121.87589,138.62854 a 11.22532,11.22532 0 0 0 -2.4852,0.19471 l -0.99126,4.29597 -3.67938,-2.21597 a 11.22532,11.22532 0 0 0 -3.07143,3.56891 11.22532,11.22532 0 0 0 -0.13799,0.26219 l 2.59526,3.27028 -3.81986,1.41846 a 11.22532,11.22532 0 0 0 0.9559,4.97517 l 4.00585,0.01 -1.24574,3.7901 a 11.22532,11.22532 0 0 0 2.12607,1.50441 11.22532,11.22532 0 0 0 2.32084,0.94661 l 2.5176,-3.14214 2.24922,3.43433 a 11.22532,11.22532 0 0 0 4.66773,-1.8583 l -0.92847,-4.11461 4.31945,0.40362 a 11.22532,11.22532 0 0 0 0.0835,-0.15006 11.22532,11.22532 0 0 0 1.34192,-4.58188 l -3.99624,-1.93629 3.12926,-3.24978 a 11.22532,11.22532 0 0 0 -2.85206,-3.97835 l -4.0843,1.95456 -0.58718,-4.45148 a 11.22532,11.22532 0 0 0 -2.4335,-0.35022 z m -0.33821,7.47448 a 3.8754083,3.8754083 0 0 1 1.7506,0.4718 3.8754083,3.8754083 0 0 1 1.54678,5.25776 3.8754083,3.8754083 0 0 1 -5.25828,1.54676 3.8754083,3.8754083 0 0 1 -1.54626,-5.25774 3.8754083,3.8754083 0 0 1 3.50716,-2.01858 z" />
        </g>
      </g>
    </g>
    <g
       id="g882"
       transform="translate(39.309524,8.8824405)">
      <rect
         style="fill:url(#radialGradient1428);fill-opacity:1;stroke:#000000;stroke-width:0.267218;stroke-linecap:round;stroke-linejoin:round;stroke-miterlimit:4;stroke-dasharray:none;stroke-opacity:1"
         id="rect1352"
         width="55.732784"
         height="55.73278"
         x="96.692581"
         y="15.706781"
         rx="1.4074671"
         ry="1.9088696" />
      <text
         xml:space="preserve"
         style="font-style:normal;font-weight:normal;font-size:10.5833px;line-height:1.25;font-family:sans-serif;fill:#035792;fill-opacity:1;stroke:none;stroke-width:0.264583"
         x="114.83553"
         y="48.189945"
         id="text877"><tspan
           sodipodi:role="line"
           id="tspan875"
           x="114.83553"
           y="48.189945"
           style="font-size:12.7px;fill:#035792;fill-opacity:1;stroke-width:0.264583">ПК</tspan></text>
    </g>
    <text
       xml:space="preserve"
       style="font-style:normal;font-weight:normal;font-size:10.5833px;line-height:1.25;font-family:sans-serif;fill:#000000;fill-opacity:1;stroke:none;stroke-width:0.264583"
       x="25.135418"
       y="88.824402"
       id="text886"><tspan
         sodipodi:role="line"
         id="tspan884"
         x="25.135418"
         y="88.824402"
         style="stroke-width:0.264583">сервер</tspan></text>
    <path
       style="fill:#000000;fill-opacity:1;stroke:#000000;stroke-width:1;stroke-linecap:butt;stroke-linejoin:round;stroke-miterlimit:4;stroke-dasharray:none;stroke-opacity:1;marker-end:url(#Arrow1Mend)"
       d="m 72.143108,60.778586 c 20.67894,0 41.357622,0 62.036012,0"
       id="path888"
       inkscape:path-effect="#path-effect890"
       inkscape:original-d="m 72.143108,60.778586 c 20.67894,2.65e-4 41.357622,2.65e-4 62.036012,0"
       sodipodi:nodetypes="cc" />
    <path
       style="fill:#000000;fill-opacity:1;stroke:#000000;stroke-width:1;stroke-linecap:butt;stroke-linejoin:round;stroke-miterlimit:4;stroke-dasharray:none;stroke-opacity:1;marker-end:url(#marker1358)"
       d="m 136.1498,40.67024 c -20.67894,0 -41.357621,0 -62.036011,0"
       id="path1352"
       inkscape:path-effect="#path-effect1354"
       inkscape:original-d="m 136.1498,40.67024 c -20.67894,2.65e-4 -41.357621,2.65e-4 -62.036011,0"
       sodipodi:nodetypes="cc" />
    <text
       xml:space="preserve"
       style="font-style:normal;font-weight:normal;font-size:8.46667px;line-height:1.25;font-family:sans-serif;fill:#000000;fill-opacity:1;stroke:none;stroke-width:0.264583"
       x="86.130356"
       y="38.811577"
       id="text1470"><tspan
         sodipodi:role="line"
         id="tspan1468"
         x="86.130356"
         y="38.811577"
         style="font-size:8.46667px;stroke-width:0.264583">команди</tspan></text>
    <text
       xml:space="preserve"
       style="font-style:normal;font-weight:normal;font-size:10.5833px;line-height:1.25;font-family:sans-serif;fill:#000000;fill-opacity:1;stroke:none;stroke-width:0.264583"
       x="76.866119"
       y="59.021248"
       id="text1474"><tspan
         sodipodi:role="line"
         id="tspan1472"
         x="76.866119"
         y="59.021248"
         style="font-size:8.46667px;stroke-width:0.264583">натискання</tspan></text>
  </g>
</svg>
