<?xml version="1.0" encoding="UTF-8" standalone="no"?>
<svg
   xmlns:dc="http://purl.org/dc/elements/1.1/"
   xmlns:cc="http://creativecommons.org/ns#"
   xmlns:rdf="http://www.w3.org/1999/02/22-rdf-syntax-ns#"
   xmlns:svg="http://www.w3.org/2000/svg"
   xmlns="http://www.w3.org/2000/svg"
   xmlns:sodipodi="http://sodipodi.sourceforge.net/DTD/sodipodi-0.dtd"
   xmlns:inkscape="http://www.inkscape.org/namespaces/inkscape"
   width="210mm"
   height="297mm"
   viewBox="0 0 210 297"
   version="1.1"
   id="svg8"
   inkscape:version="1.0.1 (3bc2e813f5, 2020-09-07)"
   sodipodi:docname="gears.svg">
  <defs
     id="defs2" />
  <sodipodi:namedview
     id="base"
     pagecolor="#ffffff"
     bordercolor="#666666"
     borderopacity="1.0"
     inkscape:pageopacity="0.0"
     inkscape:pageshadow="2"
     inkscape:zoom="0.7"
     inkscape:cx="417.39284"
     inkscape:cy="415.47608"
     inkscape:document-units="mm"
     inkscape:current-layer="layer1"
     inkscape:document-rotation="0"
     showgrid="false"
     inkscape:window-width="1600"
     inkscape:window-height="1138"
     inkscape:window-x="-8"
     inkscape:window-y="-8"
     inkscape:window-maximized="1"
     inkscape:snap-to-guides="true"
     inkscape:snap-others="true"
     inkscape:object-nodes="false"
     inkscape:snap-nodes="true"
     inkscape:snap-global="false" />
  <metadata
     id="metadata5">
    <rdf:RDF>
      <cc:Work
         rdf:about="">
        <dc:format>image/svg+xml</dc:format>
        <dc:type
           rdf:resource="http://purl.org/dc/dcmitype/StillImage" />
        <dc:title></dc:title>
      </cc:Work>
    </rdf:RDF>
  </metadata>
  <g
     inkscape:label="Layer 1"
     inkscape:groupmode="layer"
     id="layer1">
    <g
       id="g1025"
       transform="translate(-49.474108,-63.010995)">
      <path
         id="path961"
         style="fill:#000000;stroke:none;stroke-width:0.784396"
         d="m 64.371347,86.524563 -2.01379,3.581226 -3.161128,-2.588517 a 15.342226,15.342226 0 0 0 -4.648694,2.784039 l 0.750725,3.99089 -4.037865,0.04857 a 15.342226,15.342226 0 0 0 -1.786487,5.147784 l 3.107814,2.547955 -3.037953,2.61223 a 15.342226,15.342226 0 0 0 1.933472,5.11204 l 4.001751,-0.0456 -0.648222,3.95329 a 15.342226,15.342226 0 0 0 4.754855,2.68461 l 3.048268,-2.61767 2.059873,3.47078 a 15.342226,15.342226 0 0 0 2.415888,-0.20091 15.342226,15.342226 0 0 0 2.929908,-0.78354 l 0.659402,-4.00589 3.853883,1.35043 a 15.342226,15.342226 0 0 0 3.441623,-4.16557 l -2.093983,-3.53315 3.860207,-1.45786 a 15.342226,15.342226 0 0 0 0.0111,-5.023705 15.342226,15.342226 0 0 0 -0.06238,-0.353852 l -3.905078,-1.371179 2.028423,-3.612746 a 15.342226,15.342226 0 0 0 -3.503658,-4.071989 l -3.873296,1.459986 -0.765442,-4.055694 a 15.342226,15.342226 0 0 0 -5.319199,-0.855914 z m -0.633565,9.871171 a 5.6223059,5.6223059 0 0 1 6.456546,4.640126 5.6223059,5.6223059 0 0 1 -4.640133,6.45655 5.6223059,5.6223059 0 0 1 -6.456546,-4.64013 5.6223059,5.6223059 0 0 1 4.640133,-6.456546 z" />
      <g
         id="g997"
         transform="matrix(0.89970278,0.21789943,-0.21789943,0.89970278,13.331199,-9.0456329)">
        <path
           id="path974"
           style="fill:#000000;stroke:none;stroke-width:5.08282"
           d="m 383.49609,201.06055 a 100.03381,100.03381 0 0 0 -21.42968,2.38476 l -4.17383,21.19531 -17.03906,-13.90039 a 100.03381,100.03381 0 0 0 -27.48438,19.29493 l 8.3418,21.07812 -23.01953,-2.61523 a 100.03381,100.03381 0 0 0 -11.54493,26.73828 100.03381,100.03381 0 0 0 -0.93554,3.79101 l 19.375,13.91407 -21.80664,10.75195 a 100.03381,100.03381 0 0 0 6.0957,31.87891 l 24.75977,1.27734 -12.90821,21.46094 a 100.03381,100.03381 0 0 0 22.4043,23.08593 l 21.85352,-12.5 0.74609,25.11524 a 100.03381,100.03381 0 0 0 11.19336,3.71484 100.03381,100.03381 0 0 0 20.27148,3.24219 l 11.48828,-22.0625 13.875,20.24414 a 100.03381,100.03381 0 0 0 30.48438,-11.56836 l -2.18555,-23.88281 21.64844,9.12109 a 100.03381,100.03381 0 0 0 19.625,-26.74609 l -14.01367,-17.9668 21.97265,-3.82812 a 100.03381,100.03381 0 0 0 2.17188,-33.67774 l -20.45899,-7.17187 15.71289,-14.45313 a 100.03381,100.03381 0 0 0 -16.32617,-30 l -20.4375,4.8711 5.29688,-20.23828 a 100.03381,100.03381 0 0 0 -29.86524,-16.80469 l -14.54101,15.1289 -6.56055,-20.11523 a 100.03381,100.03381 0 0 0 -12.58594,-0.75781 z m 0.11524,68.07031 a 32.109616,32.109616 0 0 1 8.41015,1.08984 32.109616,32.109616 0 0 1 22.71875,39.31836 32.109616,32.109616 0 0 1 -39.31835,22.71875 32.109616,32.109616 0 0 1 -22.71876,-39.3164 32.109616,32.109616 0 0 1 30.90821,-23.81055 z"
           transform="matrix(0.20906076,-0.05593851,0.05593851,0.20906076,11.813788,34.513187)" />
      </g>
      <g
         id="g1016"
         transform="rotate(26.924322,179.84962,63.1313)">
        <path
           id="path1003"
           style="fill:#000000;stroke:none;stroke-width:1.1"
           d="m 121.87589,138.62854 a 11.22532,11.22532 0 0 0 -2.4852,0.19471 l -0.99126,4.29597 -3.67938,-2.21597 a 11.22532,11.22532 0 0 0 -3.07143,3.56891 11.22532,11.22532 0 0 0 -0.13799,0.26219 l 2.59526,3.27028 -3.81986,1.41846 a 11.22532,11.22532 0 0 0 0.9559,4.97517 l 4.00585,0.01 -1.24574,3.7901 a 11.22532,11.22532 0 0 0 2.12607,1.50441 11.22532,11.22532 0 0 0 2.32084,0.94661 l 2.5176,-3.14214 2.24922,3.43433 a 11.22532,11.22532 0 0 0 4.66773,-1.8583 l -0.92847,-4.11461 4.31945,0.40362 a 11.22532,11.22532 0 0 0 0.0835,-0.15006 11.22532,11.22532 0 0 0 1.34192,-4.58188 l -3.99624,-1.93629 3.12926,-3.24978 a 11.22532,11.22532 0 0 0 -2.85206,-3.97835 l -4.0843,1.95456 -0.58718,-4.45148 a 11.22532,11.22532 0 0 0 -2.4335,-0.35022 z m -0.33821,7.47448 a 3.8754083,3.8754083 0 0 1 1.7506,0.4718 3.8754083,3.8754083 0 0 1 1.54678,5.25776 3.8754083,3.8754083 0 0 1 -5.25828,1.54676 3.8754083,3.8754083 0 0 1 -1.54626,-5.25774 3.8754083,3.8754083 0 0 1 3.50716,-2.01858 z" />
      </g>
    </g>
  </g>
</svg>
